<svg width="100" height="30" fill="none" xmlns="http://www.w3.org/2000/svg"><path d="M21.496 6.108a.27.27 0 0 0-.245-.226c-.1-.01-2.08-.039-2.08-.039s-1.654-1.606-1.818-1.769c-.164-.164-.482-.114-.607-.078l-.832.257a5.722 5.722 0 0 0-.4-.976c-.589-1.125-1.452-1.718-2.494-1.72h-.005c-.071 0-.143.006-.217.013-.031-.036-.06-.074-.094-.108-.455-.486-1.038-.721-1.735-.7C9.62.798 8.28 1.771 7.194 3.497 6.427 4.712 5.846 6.24 5.68 7.42c-1.546.48-2.629.813-2.651.82-.78.244-.805.269-.908 1.004C2.042 9.799 0 25.58 0 25.58l17.12 2.959 7.42-1.843c.002.002-3.026-20.448-3.044-20.59Zm-6.44-1.588c-.395.12-.844.26-1.33.412-.009-.681-.092-1.63-.41-2.448 1.024.19 1.526 1.346 1.74 2.036Zm-2.224.687-2.859.885c.276-1.057.8-2.11 1.444-2.798.24-.255.574-.542.97-.705.373.775.454 1.875.444 2.618Zm-1.834-3.552a1.37 1.37 0 0 1 .81.213 3.91 3.91 0 0 0-1.048.813c-.856.916-1.51 2.34-1.773 3.713-.816.254-1.614.5-2.347.726.464-2.16 2.278-5.405 4.358-5.465Z" fill="url(#a)"/><path d="M21.496 6.108a.27.27 0 0 0-.245-.226c-.1-.01-2.08-.039-2.08-.039s-1.654-1.606-1.818-1.769c-.164-.164-.482-.114-.607-.078l-.832.257a5.722 5.722 0 0 0-.4-.976c-.589-1.125-1.452-1.718-2.494-1.72h-.005c-.071 0-.143.006-.217.013-.031-.036-.06-.074-.094-.108-.455-.486-1.038-.721-1.735-.7C9.62.798 8.28 1.771 7.194 3.497 6.427 4.712 5.846 6.24 5.68 7.42c-1.546.48-2.629.813-2.651.82-.78.244-.805.269-.908 1.004C2.042 9.799 0 25.58 0 25.58l17.12 2.959 7.42-1.843c.002.002-3.026-20.448-3.044-20.59Zm-6.44-1.588c-.395.12-.844.26-1.33.412-.009-.681-.092-1.63-.41-2.448 1.024.19 1.526 1.346 1.74 2.036Zm-2.224.687-2.859.885c.276-1.057.8-2.11 1.444-2.798.24-.255.574-.542.97-.705.373.775.454 1.875.444 2.618Zm-1.834-3.552a1.37 1.37 0 0 1 .81.213 3.91 3.91 0 0 0-1.048.813c-.856.916-1.51 2.34-1.773 3.713-.816.254-1.614.5-2.347.726.464-2.16 2.278-5.405 4.358-5.465Z" fill="#fff" fill-opacity=".1"/><path d="M21.25 5.88c-.1-.008-2.08-.038-2.08-.038s-1.654-1.606-1.818-1.77a.408.408 0 0 0-.23-.104v24.57l7.417-1.843-3.047-20.588a.268.268 0 0 0-.242-.227Z" fill="url(#b)"/><path d="M21.25 5.88c-.1-.008-2.08-.038-2.08-.038s-1.654-1.606-1.818-1.77a.408.408 0 0 0-.23-.104v24.57l7.417-1.843-3.047-20.588a.268.268 0 0 0-.242-.227Z" fill="#fff" fill-opacity=".4"/><path d="m13.01 9.692-.86 3.221s-.962-.437-2.101-.365c-1.67.105-1.688 1.158-1.673 1.422.092 1.44 3.885 1.756 4.098 5.13.168 2.654-1.41 4.47-3.68 4.614-2.727.172-4.228-1.436-4.228-1.436l.578-2.457s1.51 1.14 2.721 1.062c.79-.05 1.072-.692 1.045-1.147-.119-1.88-3.208-1.77-3.403-4.856-.164-2.598 1.545-5.233 5.313-5.47 1.446-.087 2.19.282 2.19.282Z" fill="#fff"/><path d="M34.58 16.561c-.86-.46-1.3-.86-1.3-1.4 0-.68.62-1.12 1.58-1.12 1.12 0 2.12.46 2.12.46l.78-2.4s-.72-.56-2.84-.56c-2.96 0-5.02 1.7-5.02 4.08 0 1.36.96 2.38 2.24 3.12 1.04.58 1.4 1 1.4 1.62 0 .64-.52 1.16-1.48 1.16-1.42 0-2.78-.74-2.78-.74l-.84 2.4s1.24.84 3.34.84c3.04 0 5.24-1.5 5.24-4.2-.02-1.46-1.12-2.5-2.44-3.26Zm12.12-5.06c-1.5 0-2.68.72-3.58 1.8l-.04-.02 1.3-6.8H41l-3.3 17.32h3.38l1.12-5.92c.44-2.24 1.6-3.62 2.68-3.62.76 0 1.06.52 1.06 1.26 0 .46-.04 1.04-.14 1.5l-1.28 6.78h3.38l1.32-7c.14-.74.24-1.62.24-2.22.02-1.92-.98-3.08-2.76-3.08Zm10.44 0c-4.08 0-6.78 3.68-6.78 7.78 0 2.62 1.62 4.74 4.66 4.74 4 0 6.7-3.58 6.7-7.78.02-2.42-1.4-4.74-4.58-4.74Zm-1.66 9.94c-1.16 0-1.64-.98-1.64-2.22 0-1.94 1-5.1 2.84-5.1 1.2 0 1.6 1.04 1.6 2.04 0 2.08-1.02 5.28-2.8 5.28Zm14.92-9.94c-2.28 0-3.58 2.02-3.58 2.02h-.04l.2-1.82h-3c-.14 1.22-.42 3.1-.68 4.5l-2.36 12.4h3.38l.94-5.02h.08s.7.44 1.98.44c3.98 0 6.58-4.08 6.58-8.2 0-2.28-1.02-4.32-3.5-4.32Zm-3.24 9.98c-.88 0-1.4-.5-1.4-.5l.56-3.16c.4-2.12 1.5-3.52 2.68-3.52 1.04 0 1.36.96 1.36 1.86 0 2.2-1.3 5.32-3.2 5.32Zm11.58-14.84c-1.08 0-1.94.86-1.94 1.96 0 1 .64 1.7 1.6 1.7h.04c1.06 0 1.96-.72 1.98-1.96 0-.98-.66-1.7-1.68-1.7ZM74 23.781h3.38l2.3-12h-3.4l-2.28 12Zm14.3-12.02h-2.36l.12-.56c.2-1.16.88-2.18 2.02-2.18.6 0 1.08.18 1.08.18l.66-2.66s-.58-.3-1.84-.3c-1.2 0-2.4.34-3.32 1.12-1.16.98-1.7 2.4-1.96 3.84l-.1.56h-1.58l-.5 2.56h1.58l-1.8 9.48h3.38l1.8-9.48h2.34l.48-2.56Zm8.16.02s-2.12 5.34-3.06 8.26h-.04c-.06-.94-.84-8.26-.84-8.26h-3.56L91 22.801c.04.24.02.4-.08.56-.4.76-1.06 1.5-1.84 2.04-.64.46-1.36.76-1.92.96l.94 2.88c.68-.14 2.12-.72 3.32-1.84 1.54-1.44 2.98-3.68 4.44-6.72l4.14-8.9h-3.54Z" fill="#000"/><defs><radialGradient id="a" cx="0" cy="0" r="1" gradientUnits="userSpaceOnUse" gradientTransform="matrix(29.26728 51.13873 -46.08617 26.37564 -7.132 -13.954)"><stop stop-color="#CEF141"/><stop offset=".586" stop-color="#79D7EC"/><stop offset="1" stop-color="#130FD7"/></radialGradient><radialGradient id="b" cx="0" cy="0" r="1" gradientUnits="userSpaceOnUse" gradientTransform="matrix(-8.8711 -58.04947 26.78326 -4.093 20.872 31.174)"><stop stop-color="#130FD7"/><stop offset=".428" stop-color="#21C9AB"/><stop offset=".915" stop-color="#CEF141"/></radialGradient></defs></svg>